<?xml version="1.0" encoding="utf-8"?>
<!-- Generator: Adobe Illustrator 22.0.0, SVG Export Plug-In . SVG Version: 6.00 Build 0)  -->
<svg version="1.1" id="Layer_1" xmlns="http://www.w3.org/2000/svg" xmlns:xlink="http://www.w3.org/1999/xlink" x="0px" y="0px"
	 viewBox="0 0 512 512" style="enable-background:new 0 0 512 512;" xml:space="preserve">
<style type="text/css">
	.st0{fill:#4CAF50;}
	.st1{fill:#2E7D32;}
	.st2{fill:#FFFFFF;stroke:#FFFFFF;stroke-width:20;stroke-miterlimit:10;}
</style>
<g>
	<g>
		<polygon class="st0" points="505.1,178.7 255.9,338.1 6.9,179.2 256.4,19.7 		"/>
		<g>
			<polygon class="st1" points="256,442.8 6.6,263.9 6.9,179.3 256,339.5 			"/>
			<polygon class="st1" points="6.9,228.8 256,339.7 256,492.3 6.9,332.1 			"/>
		</g>
		<g>
			<polygon class="st0" points="505.4,228.8 256,407.7 256.3,492.3 505.4,332.1 			"/>
			<polygon class="st0" points="256.3,442.8 505.4,332 505.4,179.3 256.3,339.5 			"/>
		</g>
	</g>
	<g>
		<path class="st2" d="M103.4,352V156.4h24.3v173.9h90.9V352H103.4z"/>
		<path class="st2" d="M269.9,289.9v-99.1h23.2v97.7c0,28.7,16.1,46.9,46,46.9c29.9,0,46.3-18.2,46.3-46.9v-97.7h23.2v99.1
			c0,39.9-23.5,65.7-69.5,65.7C293.1,355.6,269.9,329.5,269.9,289.9z"/>
	</g>
</g>
</svg>
