<?xml version="1.0" encoding="UTF-8"?>
<svg width="225px" height="214px" viewBox="0 0 225 214" version="1.1" xmlns="http://www.w3.org/2000/svg" xmlns:xlink="http://www.w3.org/1999/xlink">
    <!-- Generator: Sketch 55.2 (78181) - https://sketchapp.com -->
    <title>Stroke 1</title>
    <desc>Created with Sketch.</desc>
    <g id="Architecture-Light" stroke="none" stroke-width="1" fill="none" fill-rule="evenodd">
        <g id="Landing" transform="translate(-1159.000000, -2001.000000)" stroke="#4CAF50" stroke-width="5">
            <g id="Services" transform="translate(169.000000, 1620.000000)">
                <g id="Item-Copy" transform="translate(786.000000, 384.000000)">
                    <path d="M281.161147,52.5160743 L296.148611,52.5160743 C298.306806,52.5160743 300.105301,51.3170772 301.064499,49.5185815 C301.544098,48.6792835 301.783298,47.8399855 301.783298,46.8807878 L301.783298,45.8016904 L301.783298,41.365401 L301.783298,13.0690687 L301.783298,8.99247848 L301.783298,7.43378221 C301.783298,6.4745845 301.544098,5.63528651 301.303699,4.79598852 C300.224602,2.03829512 297.467508,0 294.349516,0 L281.160547,0 C278.282954,0 275.88496,2.15819483 275.64516,4.91588823 C275.64516,5.15568766 275.525261,5.39548709 275.525261,5.63528651 L275.525261,8.99247848 L275.525261,13.0690687 L275.525261,41.8449999 L275.525261,46.4011889 L275.525261,46.8807878 C275.525261,48.0797849 275.885559,49.1588823 276.485058,50.1180801 C277.564155,51.5568766 279.242751,52.5160743 281.161147,52.5160743 Z M271.808969,14.8675644 C259.339399,21.2222492 249.508222,33.9316188 245.791331,46.2812892 L244.952033,48.9190829 L238.11715,48.9190829 L238.11715,63.9065471 L245.550332,63.9065471 L256.102107,63.9065471 L260.537797,63.9065471 L318.329458,63.9065471 L322.645848,63.9065471 L339.071509,63.9065471 L339.071509,63.1871488 L339.071509,48.9190829 L332.357125,48.9190829 L331.518427,46.2812892 C327.801536,33.9316188 317.96916,21.3421489 305.500189,14.9874641 L305.500189,43.1638967 L305.500189,47.1205872 L305.500189,47.6001861 C305.380289,48.9190829 305.14049,50.1180801 304.540991,51.3170772 C302.981695,54.31457 299.864902,56.4727648 296.267911,56.4727648 L294.349516,56.4727648 L281.160547,56.4727648 C277.802756,56.4727648 274.805263,54.6742691 273.247166,52.0364755 C272.527768,50.957378 272.168069,49.7583809 271.928269,48.4394841 C271.80837,47.9598852 271.80837,47.6001861 271.80837,47.1205872 L271.80837,43.7633953 L271.80837,14.8675644 L271.808969,14.8675644 Z M368.987686,166.150428 C360.474807,166.150428 353.580573,159.256194 353.580573,150.743914 C353.580573,142.230435 360.474807,135.336202 368.987686,135.336202 C377.500566,135.336202 384.3948,142.230435 384.3948,150.743914 C384.3948,159.256194 377.500566,166.150428 368.987686,166.150428 Z M426,155.719153 L426,145.738101 L405.227974,141.991235 C404.298751,138.124469 402.769431,134.527478 400.76171,131.230236 L412.841606,113.964677 L405.766923,106.890594 L388.442014,118.940515 C385.144772,116.932195 381.517806,115.403474 377.681015,114.504226 L373.994099,93.7621751 L364.013047,93.7621751 L360.266181,114.5348 C356.399416,115.464023 352.802424,116.992744 349.505182,119.000465 L332.239623,106.921169 L325.16554,113.995252 L337.215461,131.32076 C335.207141,134.618002 333.67842,138.244969 332.779172,142.08116 L312.036522,145.768076 L312.036522,155.749727 L332.809147,159.496593 C333.73837,163.36276 335.267091,166.959751 337.274812,170.256993 L325.16554,187.523151 L332.239623,194.597234 L349.564532,182.546714 C352.861775,184.555633 356.48934,186.083755 360.325532,186.983003 L364.012448,207.725653 L373.993499,207.725653 L377.740366,186.953628 C381.607131,186.024405 385.204123,184.495084 388.501365,182.487363 L405.766923,194.567259 L412.841606,187.492577 L400.791085,170.167668 C402.800005,166.870426 404.328127,163.243459 405.227375,159.406668 L426,155.719153 Z M251.905617,93.8215255 C253.044064,103.623327 257.151229,112.345432 263.146215,118.730691 C264.405162,120.079563 265.724059,121.308535 267.132281,122.417607 C268.930776,123.855804 270.819197,125.084776 272.827517,126.133899 C277.353731,128.471943 282.330169,129.820815 287.635132,129.820815 C292.940094,129.820815 297.916532,128.471943 302.442746,126.133899 C304.451066,125.084776 306.339487,123.855804 308.137983,122.417607 C309.546804,121.27856 310.895676,120.048988 312.154623,118.700116 C318.119034,112.316056 322.226199,103.683277 323.364647,93.9414252 C323.484546,93.9414252 323.575071,93.9714001 323.69497,93.9714001 C329.929156,93.9714001 334.995518,88.156264 334.995518,80.9922562 C334.995518,76.6458916 333.137073,72.8390757 330.289455,70.4710563 L246.899804,70.4710563 C244.052185,72.8390757 242.19374,76.6458916 242.19374,80.9922562 C242.19374,87.5867404 246.420205,92.9522525 251.905617,93.8215255 Z M354.599721,194.236936 C353.550598,193.577487 350.283331,192.738189 349.384083,192.049365 L330.949502,204.159236 L315.962038,189.171772 L328.851258,168.638946 C328.371659,167.769673 328.462183,167.619799 328.041934,166.690576 L304.301192,162.463512 L304.391117,139.353441 L321.716026,136.355949 L313.083846,127.932394 C305.889863,133.80808 297.077234,137.284572 287.665107,137.284572 L287.635132,137.284572 L287.605157,137.284572 C278.702004,137.284572 270.369573,134.167779 263.41479,128.891592 L254.632736,137.284572 L237.457102,137.284572 C229.543721,137.284572 223.338911,139.982315 218.512947,145.588227 C204.394756,161.894588 206.762176,197.025203 207.871848,207.786203 L357.176965,207.786203 L354.599721,194.236936 Z" id="Stroke-1"></path>
                </g>
            </g>
        </g>
    </g>
</svg>