<?xml version="1.0" encoding="UTF-8"?>
<svg width="211px" height="212px" viewBox="0 0 211 212" version="1.1" xmlns="http://www.w3.org/2000/svg" xmlns:xlink="http://www.w3.org/1999/xlink">
    <!-- Generator: Sketch 55.2 (78181) - https://sketchapp.com -->
    <title>Group 7</title>
    <desc>Created with Sketch.</desc>
    <g id="Architecture-Light" stroke="none" stroke-width="1" fill="none" fill-rule="evenodd">
        <g id="Landing" transform="translate(-1926.000000, -2001.000000)" stroke="#4CAF50" stroke-width="5">
            <g id="Services" transform="translate(169.000000, 1620.000000)">
                <g id="Item-Copy-2" transform="translate(1581.000000, 384.000000)">
                    <g id="Group-7" transform="translate(179.000000, 0.000000)">
                        <path d="M5.56967574,173.513883 C-1.85655858,181.038067 -1.85655858,193.223155 5.56967574,200.74776 C9.2827929,204.509852 14.1489899,206.383929 19.0156038,206.383929 C23.8822176,206.383929 28.7484146,204.509852 32.4615318,200.74776 L94.875,137.497569 L67.983144,110.276786 L5.56967574,173.513883 Z" id="Stroke-1"></path>
                        <polygon id="Stroke-3" points="162.742851 55.9364364 190.1744 41.7575937 204.535714 14.0017333 191.146601 0.616071429 163.394912 14.98627 149.186727 42.3842318 115.821429 75.7781525 129.351892 89.3303571"></polygon>
                        <path d="M168.970306,128.706303 L166.403468,128.451051 C161.75298,128.451051 157.343668,129.409405 153.226946,130.943445 L74.9929128,52.2233951 C76.5177178,48.0813191 77.4707209,43.6453029 77.4707209,38.9666493 L77.2165867,36.3846851 C75.8698428,16.42913 59.5291831,0.616071429 39.3514319,0.616071429 C33.480849,0.616071429 27.9789279,2.06096211 23.0107722,4.45159178 L48.3347403,29.9289337 C49.6689447,31.2707982 50.5839113,32.8557205 51.1937497,34.530633 C52.8581613,39.056219 51.9561522,44.348825 48.3347403,48.0043648 C45.8569322,50.4976002 42.604182,51.7503154 39.3514319,51.7503154 C37.8521239,51.7503154 36.3653554,51.4181083 34.9421205,50.8806897 C33.2777089,50.2415064 31.7019099,49.3466497 30.3677055,47.9921699 L5.04415536,22.5270228 C2.6679173,27.5252681 1.23214286,33.0605114 1.23214286,38.9666493 C1.23214286,59.267027 16.9500067,75.7062329 36.7850112,77.0615538 L39.3518499,77.3168066 C44.0023379,77.3168066 48.4116493,76.3580316 52.528372,74.8370277 L130.749447,153.544883 C129.250139,157.686538 128.297136,162.122975 128.297136,166.801628 L128.56381,169.383593 C129.885475,189.351763 146.238674,205.151786 166.416425,205.151786 C172.287008,205.151786 177.801469,203.732967 182.757085,201.316686 L157.433117,175.839344 C156.111452,174.509674 155.183946,172.912137 154.54861,171.25026 C152.884199,166.725095 153.786208,161.419873 157.433117,157.764333 C159.885428,155.271098 163.163675,154.018383 166.416425,154.018383 C167.916151,154.018383 169.389544,154.337974 170.838276,154.888008 C172.502688,155.514156 174.091026,156.409012 175.399734,157.764333 L200.723702,183.241675 C203.112479,178.230394 204.535714,172.708187 204.535714,166.802049 C204.523175,146.50083 188.805311,130.061624 168.970306,128.706303 Z" id="Stroke-5"></path>
                    </g>
                </g>
            </g>
        </g>
    </g>
</svg>