<?xml version="1.0" encoding="UTF-8"?>
<svg width="167px" height="167px" viewBox="0 0 167 167" version="1.1" xmlns="http://www.w3.org/2000/svg" xmlns:xlink="http://www.w3.org/1999/xlink">
    <g id="main" stroke-width="1" fill="none" fill-rule="evenodd">
        <g id="Group-2" transform="translate(3.000000, 25.000000)" stroke="#607D8B" stroke-width="3">
            <path d="M27.7012257,22.4205379 L27.0777028,24.3031785 L22,24.3031785 L22,35 L27.5221855,35 L35.3612038,35 L38.656522,35 L81.5905236,35 L84.7972126,35 L97,35 L97,34.4865526 L97,24.3031785 L92.0118172,24.3031785 L91.3887398,22.4205379 C88.6274243,13.606357 81.3228542,4.62102689 72.0595316,0.0855745721 L72.0595316,20.195599 L72.0595316,23.0195599 L72.0595316,23.3618582 C71.9704569,24.3031785 71.7923075,25.1589242 71.346934,26.0146699 C70.1885177,28.1540342 67.8730211,29.6943765 65.2007803,29.6943765 L63.7755852,29.6943765 L53.9773691,29.6943765 C51.4828323,29.6943765 49.255965,28.4107579 48.0984394,26.5281174 C47.5639913,25.7579462 47.2967672,24.9022005 47.1186178,23.9608802 C47.0295431,23.6185819 47.0295431,23.3618582 47.0295431,23.0195599 L47.0295431,20.6234719 L47.0295431,0 C37.7662205,4.53545232 30.4625411,13.606357 27.7012257,22.4205379 Z" id="Path"></path>
            <path d="M161,103.123484 L161,95.8542489 L145.871661,93.1253932 C145.194905,90.3092142 144.081095,87.6895128 142.618865,85.2881198 L151.416696,72.713553 L146.26418,67.5614736 L133.646388,76.3374733 C131.244995,74.8748067 128.603462,73.7614336 125.809114,73.1065082 L123.12392,58 L115.854685,58 L113.12583,73.1287757 C110.309651,73.8055319 107.689949,74.918905 105.288556,76.381135 L92.7139896,67.583741 L87.5619102,72.7358205 L96.3379099,85.354049 C94.8752433,87.7554419 93.7618702,90.3969742 93.1069448,93.1908858 L78,95.8760797 L78,103.145751 L93.1287757,105.874607 C93.8055319,108.690349 94.918905,111.310051 96.381135,113.711444 L87.5619102,126.286447 L92.7139896,131.438526 L105.331782,122.66209 C107.733174,124.125193 110.375143,125.23813 113.169055,125.893055 L115.854249,141 L123.123484,141 L125.852339,125.871661 C128.668518,125.194905 131.28822,124.081095 133.689613,122.618865 L146.26418,131.416696 L151.416696,126.26418 L142.640259,113.646388 C144.103362,111.244995 145.216299,108.603462 145.871224,105.809114 L161,103.123484 Z" id="Path"></path>
            <path d="M32.2209769,56.9178477 C33.0674358,64.0194345 36.1211959,70.338761 40.578589,74.9649996 C41.5146416,75.9422822 42.4952681,76.8326953 43.5423097,77.6362387 C44.8795276,78.6782392 46.2836065,79.5686522 47.7768332,80.3287609 C51.142165,82.0227174 54.842247,83 58.7865942,83 C62.7309414,83 66.4310235,82.0227174 69.7963553,80.3287609 C71.289582,79.5686522 72.6936608,78.6782392 74.0308788,77.6362387 C75.0783661,76.8109779 76.0812796,75.9201305 77.0173322,74.9428479 C81.4519926,70.317478 84.5057526,64.0628693 85.3522116,57.0047172 C85.4413594,57.0047172 85.5086661,57.0264346 85.5978139,57.0264346 C90.2330571,57.0264346 94,52.8132607 94,47.6228043 C94,44.4737826 92.6182081,41.7156739 90.5009464,40 L28.4990536,40 C26.3817919,41.7156739 25,44.4737826 25,47.6228043 C25,52.4006303 28.1424622,56.2880433 32.2209769,56.9178477 Z" id="Path"></path>
            <path d="M109.095087,130.989122 C108.319651,130.501888 105.904722,129.881773 105.240063,129.372835 L91.6145479,138.320215 L80.5368935,127.246725 L90.0636763,112.076043 C89.7091914,111.433781 89.7761004,111.323046 89.465483,110.636489 L71.9180353,107.513322 L71.9845012,90.4384427 L84.7898266,88.2237446 L78.4095408,82 C73.0922667,86.3412512 66.5786059,88.909858 59.6218389,88.909858 L59.5996836,88.909858 L59.5775283,88.909858 C52.9969585,88.909858 46.8382258,86.607015 41.697751,82.7087034 L35.2066886,88.909858 L22.5116967,88.909858 C16.6626952,88.909858 12.0765463,90.9030863 8.50954155,95.0450147 C-1.92560888,107.092972 -0.175782595,133.049234 0.644406936,141 L111,141 L109.095087,130.989122 Z" id="Path"></path>
        </g>
    </g>
</svg>