<?xml version="1.0" encoding="UTF-8"?>
<svg width="167px" height="167px" viewBox="0 0 167 167" version="1.1" xmlns="http://www.w3.org/2000/svg" xmlns:xlink="http://www.w3.org/1999/xlink">
    <g id="main" stroke="none" stroke-width="1" fill-rule="evenodd">
        <g id="Group-2" transform="translate(53.000000, 5.000000)">
            <path d="M4.07805936,42 L14.9228082,42 C16.4844521,42 17.7858219,41.0410959 18.4798858,39.6027397 C18.8269178,38.9315068 19,38.260274 19,37.4931507 L19,36.630137 L19,33.0821918 L19,10.4520548 L19,7.19178082 L19,5.94520548 C19,5.17808219 18.8269178,4.50684932 18.652968,3.83561644 C17.8721461,1.63013699 15.8771461,0 13.6210046,0 L4.07762557,0 C1.99543379,0 0.260273973,1.7260274 0.0867579909,3.93150685 C0.0867579909,4.12328767 0,4.31506849 0,4.50684932 L0,7.19178082 L0,10.4520548 L0,33.4657534 L0,37.109589 L0,37.4931507 C0,38.4520548 0.260707763,39.3150685 0.694497717,40.0821918 C1.47531963,41.2328767 2.68993151,42 4.07805936,42 Z" id="Path"></path>
            <path d="M71.4071131,130.407113 C64.7767629,130.407113 59.4071131,125.037463 59.4071131,118.40758 C59.4071131,111.776763 64.7767629,106.407113 71.4071131,106.407113 C78.0374633,106.407113 83.4071131,111.776763 83.4071131,118.40758 C83.4071131,125.037463 78.0374633,130.407113 71.4071131,130.407113 Z" id="Path" stroke="#4CAF50" stroke-width="5"></path>
        </g>
    </g>
</svg>