<?xml version="1.0" encoding="UTF-8"?>
<svg width="167px" height="167px" viewBox="0 0 167 167" version="1.1" xmlns="http://www.w3.org/2000/svg" xmlns:xlink="http://www.w3.org/1999/xlink">
    <g id="main" stroke-width="1" fill="none" fill-rule="evenodd">
        <g id="Group-7" transform="translate(7.000000, 8.000000)" stroke-width="3">
            <polygon id="Stroke-3" points="120.43663 41.7797925 141.153855 31.0714557 152 10.1093002 141.888093 0 120.929088 10.8528553 110.198591 31.5447137 85 56.7649212 95.2186589 67"></polygon>
            <path d="M125.409508,95.1898074 L123.49041,95.0001172 C120.013471,95.0001172 116.716847,95.7123149 113.638978,96.8523313 L55.1472704,38.3518019 C56.2872915,35.2736326 56.9998047,31.9770227 56.9998047,28.5000977 L56.8098012,26.58132 C55.8029075,11.7514191 43.5858065,0 28.4999023,0 C24.1107586,0 19.997245,1.07376545 16.2828013,2.85035352 L35.2162766,21.783751 C36.2137951,22.7809529 36.8978702,23.9587823 37.3538162,25.2034877 C38.5982142,28.5666611 37.9238267,32.4998427 35.2162766,35.2164443 C33.3637423,37.0692835 30.9318223,38.0002344 28.4999023,38.0002344 C27.3789441,38.0002344 26.267361,37.7533558 25.2032788,37.3539751 C23.9588808,36.8789682 22.780734,36.2139587 21.7832156,35.2073817 L2.85005274,16.2830468 C1.07345736,19.9974753 0,24.110972 0,28.5000977 C0,43.5862523 11.7514674,55.8029906 26.5811168,56.8101926 L28.5002148,56.9998828 C31.9771542,56.9998828 35.2737777,56.2873726 38.3516471,55.1570438 L96.8336667,113.648511 C95.7127085,116.726367 95.0001953,120.02329 95.0001953,123.500215 L95.199574,125.418992 C96.1877173,140.258269 108.414194,152 123.500098,152 C127.889241,152 132.01213,150.94561 135.717199,149.149959 L116.783723,130.216562 C115.79558,129.228422 115.10213,128.041218 114.627121,126.8062 C113.382723,123.443339 114.05711,119.500782 116.783723,116.784181 C118.617195,114.931342 121.068178,114.000391 123.500098,114.000391 C124.621368,114.000391 125.722951,114.237894 126.806096,114.64665 C128.050494,115.111969 129.238016,115.776979 130.216472,116.784181 L149.149947,135.717578 C150.935918,131.993462 152,127.889653 152,123.500527 C151.990625,108.413748 140.239157,96.1970094 125.409508,95.1898074 Z" id="Stroke-5"></path>
        </g>
    </g>
</svg>